M48
M71,LZ
T01C0.2
T02C0.38
%
T01
X001000Y018000
X001000Y014000
X001000Y010000
X001210Y001210
X001260Y006030
X005000Y018000
X005000Y014000
X005000Y010000
X006060Y006060
X006110Y001180
X009000Y018000
X009000Y014000
X009000Y010000
X009000Y006000
X009000Y002000
X011304Y007948
X011304Y007386
X011304Y006824
X011304Y006262
X011304Y005700
X011304Y005138
X011866Y007948
X011866Y007386
X011866Y006824
X011866Y006262
X011866Y005700
X011866Y005138
X012428Y007948
X012428Y007386
X012428Y006824
X012428Y006262
X012428Y005700
X012428Y005138
X012990Y007948
X012990Y007386
X012990Y006824
X012990Y006262
X012990Y005700
X012990Y005138
X012990Y004576
X012990Y004014
X012990Y003452
X013000Y018000
X013000Y014000
X013000Y010000
X013000Y006000
X013000Y002000
X013552Y007948
X013552Y007386
X013552Y006824
X013552Y006262
X013552Y005700
X013552Y005138
X014114Y007948
X014114Y007386
X014114Y006824
X014114Y006262
X014114Y005700
X014114Y005138
X014676Y007948
X014676Y007386
X014676Y006824
X014676Y006262
X014676Y005700
X014676Y005138
X017000Y018000
X017000Y002000
X021000Y018000
X021000Y014000
X021000Y010000
X021000Y006000
X021000Y002000
X023950Y006000
X023970Y001200
X025000Y018000
X025000Y014000
X025000Y010000
X028740Y006030
X028800Y001140
X029000Y018000
X029000Y014000
X029000Y010000
T02
X002090Y015463
X004631Y015463
T00
M30
