M48
M71,LZ
T01C0.2
T02C0.38
%
T01
X019120Y001420
X019130Y006090
X023830Y001430
X023850Y006230
X027214Y005818
X027214Y005256
X027214Y004694
X027214Y004132
X027214Y003570
X027214Y003008
X027776Y005818
X027776Y005256
X027776Y004694
X027776Y004132
X027776Y003570
X027776Y003008
X028338Y005818
X028338Y005256
X028338Y004694
X028338Y004132
X028338Y003570
X028338Y003008
X028580Y006820
X028900Y005818
X028900Y005256
X028900Y004694
X028900Y004132
X028900Y003570
X028900Y003008
X028900Y002446
X028900Y001884
X028900Y001322
X029462Y005818
X029462Y005256
X029462Y004694
X029462Y004132
X029462Y003570
X029462Y003008
X030024Y005818
X030024Y005256
X030024Y004694
X030024Y004132
X030024Y003570
X030024Y003008
X030586Y005818
X030586Y005256
X030586Y004694
X030586Y004132
X030586Y003570
X030586Y003008
X031800Y002780
X036844Y005818
X036844Y005256
X036844Y004694
X036844Y004132
X036844Y003570
X036844Y003008
X037406Y005818
X037406Y005256
X037406Y004694
X037406Y004132
X037406Y003570
X037406Y003008
X037968Y005818
X037968Y005256
X037968Y004694
X037968Y004132
X037968Y003570
X037968Y003008
X038530Y005818
X038530Y005256
X038530Y004694
X038530Y004132
X038530Y003570
X038530Y003008
X038530Y002446
X038530Y001884
X038530Y001322
X039092Y005818
X039092Y005256
X039092Y004694
X039092Y004132
X039092Y003570
X039092Y003008
X039654Y005818
X039654Y005256
X039654Y004694
X039654Y004132
X039654Y003570
X039654Y003008
X040216Y005818
X040216Y005256
X040216Y004694
X040216Y004132
X040216Y003570
X040216Y003008
X042880Y004320
X043540Y005160
X044680Y006020
X044700Y001310
X049460Y006030
X049460Y001310
T02
X034790Y006191
X034790Y003650
T00
M30
